<?xml version="1.0" standalone="no"?>
<!DOCTYPE svg PUBLIC "-//W3C//DTD SVG 20010904//EN"
 "http://www.w3.org/TR/2001/REC-SVG-20010904/DTD/svg10.dtd">
<svg version="1.0" xmlns="http://www.w3.org/2000/svg"
 width="512.000000pt" height="512.000000pt" viewBox="0 0 512.000000 512.000000"
 preserveAspectRatio="xMidYMid meet">

<g transform="translate(0.000000,512.000000) scale(0.100000,-0.100000)"
fill="#000000" stroke="none">
<path d="M2465 5113 c-493 -31 -940 -275 -1235 -673 -78 -105 -195 -331 -235
-454 -110 -340 -105 -740 15 -1069 55 -150 116 -258 408 -717 155 -245 450
-710 655 -1035 206 -324 385 -597 399 -608 13 -10 44 -23 67 -28 36 -8 50 -6
85 10 49 25 18 -21 448 658 189 298 469 740 623 982 304 480 378 611 429 771
195 602 43 1241 -400 1684 -337 337 -788 509 -1259 479z m285 -917 c30 -9 98
-36 150 -62 80 -40 110 -62 186 -139 81 -80 98 -103 142 -195 64 -134 77 -188
77 -330 0 -142 -13 -196 -77 -330 -44 -92 -61 -115 -142 -196 -81 -81 -104
-98 -196 -142 -136 -65 -188 -77 -340 -77 -103 0 -138 4 -200 23 -249 78 -433
261 -510 507 -30 95 -38 264 -17 362 33 154 96 270 208 382 108 108 225 173
373 207 75 17 267 12 346 -10z"/>
</g>
</svg>
